<?xml version="1.0" encoding="utf-8"?>
<?xml-stylesheet type="text/xsl" href="rss1.xsl"?>
<rss version="2.0" xmlns:atom="http://www.w3.org/2005/Atom" xmlns:content="http://purl.org/rss/1.0/modules/content/" xmlns:dc="http://purl.org/dc/elements/1.1/" xmlns:media="http://search.yahoo.com/mrss/">
<channel>
 <title>Getty</title>
 <link>http://www.gettyimg.com/</link>
 <atom:link href="http://www.gettyimg.com/" rel="self" type="application/rss+xml" />

 
                <item>
                <title><![CDATA[【Requests】[REQ AUD] - A.K.A., ANJA/ANEEA, Gyptian, Nicki Minaj, Elyar Fox req]]></title>
                <link><![CDATA[https://sharemania.us/threads/a-k-a-anja-aneea-gyptian-nicki-minaj-elyar-fox-req.244820/]]></link>
                <description><![CDATA[<article>
<blockquote class="messageText SelectQuoteContainer ugc baseHtml">
Does anybody have any of these songs in lossless pls?<br>
<br>
* A.K.A. - Hot For Me<br>
* Aneea (ANJA) - Baby Don't Stop Now<br>
* Aneea (ANJA) - Brand New Start<br>
* Aneea (ANJA) - Crazy Little Thing<br>
* Aneea (ANJA) - Dance All Nite<br>
* Aneea (ANJA) ft. Sonja Blade - Run Dem Boyz<br>
<br>
* Azealia Banks - Competition<br>
* Gyptian ft. Nicki Minaj - Hold Yuh/Hold You (Remix)<br>
* Kat DeLuna - Move Your Body<br>
* Kat DeLuna ft. Shaka Dee - How We Roll<br>
<br>
* Rebecca Black - My Moment<br>
* Elyar Fox - A Billion Girls
<div class="messageTextEndMarker">&nbsp;</div>
</blockquote>
</article>]]></description>
                <author><![CDATA[yaboii129x]]></author>
                </item>

                
                <item>
                <title><![CDATA[【PRORES HD】5 Seconds of Summer - Older (feat. Sierra Deaton) [ProRes 2K]]]></title>
                <link><![CDATA[https://sharemania.us/threads/5-seconds-of-summer-older-feat-sierra-deaton-prores-2k.244819/]]></link>
                <description><![CDATA[<article>
<blockquote class="messageText SelectQuoteContainer ugc baseHtml">
<div style="text-align: center"><img src="https://i.ibb.co/3s5ZvzD/5-Seconds-of-Summer-Older-feat-Sierra-Deaton-VTM.gif" class="bbCodeImage LbImage" alt="[​IMG]" data-url="https://i.ibb.co/3s5ZvzD/5-Seconds-of-Summer-Older-feat-Sierra-Deaton-VTM.gif" style=""><br>
​</div>
<div class="ToggleTriggerAnchor bbCodeSpoilerContainer">
<button type="button" class="button bbCodeSpoilerButton ToggleTrigger Tooltip JsOnly" data-target="> .SpoilerTarget"><span>Spoiler: <span class="SpoilerTitle">ProRes</span></span></button>
<div class="SpoilerTarget bbCodeSpoilerText">
<div class="bbCodeBlock bbCodeCode">
<div class="type">Code:</div>
<pre>General
Complete name                            : 5 Seconds of Summer - Older (feat. Sierra Deaton).mov
Format                                   : MPEG-4
Format profile                           : QuickTime
Codec ID                                 : qt   2005.03 (qt  )
File size                                : 4.75 GiB
Duration                                 : 3 min 16 s
Overall bit rate mode                    : Variable
Overall bit rate                         : 208 Mb/s
Frame rate                               : 24.000 FPS
Encoded date                             : 2022-10-12 21:54:03 UTC
Tagged date                              : 2022-10-12 21:54:19 UTC
Writing library                          : Apple QuickTime
TIM                                      : 00:00:00:00
TSC                                      : 24
TSZ                                      : 1

Video
ID                                       : 1
Format                                   : ProRes
Format version                           : Version 0
Format profile                           : 422 HQ
Codec ID                                 : apch
Duration                                 : 3 min 16 s
Bit rate mode                            : Variable
Bit rate                                 : 206 Mb/s
Width                                    : 2 048 pixels
Height                                   : 1 152 pixels
Display aspect ratio                     : 16:9
Frame rate mode                          : Constant
Frame rate                               : 24.000 FPS
Color space                              : YUV
Chroma subsampling                       : 4:2:2
Scan type                                : Progressive
Bits/(Pixel*Frame)                       : 3.639
Stream size                              : 4.71 GiB (99%)
Writing library                          : Apple
Language                                 : English
Encoded date                             : 2022-10-12 21:54:03 UTC
Tagged date                              : 2022-10-12 21:54:03 UTC
Color primaries                          : BT.709
Transfer characteristics                 : BT.709
Matrix coefficients                      : BT.709

Audio
ID                                       : 2
Format                                   : PCM
Format settings                          : Little / Signed
Codec ID                                 : sowt
Duration                                 : 3 min 16 s
Bit rate mode                            : Constant
Bit rate                                 : 1 536 kb/s
Channel(s)                               : 2 channels
Channel layout                           : L R
Sampling rate                            : 48.0 kHz
Bit depth                                : 16 bits
Stream size                              : 35.9 MiB (1%)
Language                                 : English
Encoded date                             : 2022-10-12 21:54:03 UTC
Tagged date                              : 2022-10-12 21:54:03 UTC

Other
ID                                       : 3
Type                                     : Time code
Format                                   : QuickTime TC
Duration                                 : 3 min 16 s
Frame rate                               : 24.000 FPS
Time code of first frame                 : 00:00:00:00
Time code of last frame                  : 00:03:16:07
Time code, stripped                      : Yes
Language                                 : English
Encoded date                             : 2022-10-12 21:54:03 UTC
Tagged date                              : 2022-10-12 21:54:03 UTC

</pre>
</div><div style="text-align: center">​</div></div>
</div><div style="text-align: center"><br>
<div class="bbCodeBlock bbCodeVfcHH HiddenContent">
<div class="attribution type">Hidden Content:</div>
<blockquote>You must reply before you can see the hidden data contained here.</blockquote>
</div></div>
<div class="messageTextEndMarker">&nbsp;</div>
</blockquote>
</article>]]></description>
                <author><![CDATA[fstambuk]]></author>
                </item>

                
                <item>
                <title><![CDATA[【Albums (lossless)】FLAC - BILLY IDOL - 1982 - Billy Idol [2013 Remastered] [24bit-192kHz]]]></title>
                <link><![CDATA[https://sharemania.us/threads/billy-idol-1982-billy-idol-2013-remastered-24bit-192khz.244821/]]></link>
                <description><![CDATA[<article>
<blockquote class="messageText SelectQuoteContainer ugc baseHtml">
<div style="text-align: center"><img src="https://static.qobuz.com/images/covers/sc/6b/lu0lus4ze6bsc_600.jpg" class="bbCodeImage LbImage" alt="[​IMG]" data-url="https://static.qobuz.com/images/covers/sc/6b/lu0lus4ze6bsc_600.jpg" style=""> <br>
<br>
<b>Artist</b>: Billy Idol <br>
<b>Album</b>: Billy Idol [2013 Remastered]<br>
<b>Date</b>: 07 January 1982<br>
<b>Genre</b>: New Wave/Pop Rock<br>
<b>Quality</b>: 24bit-192kHz<br>
<b>Country</b>: UK<br>
<b>Size</b>: 1,7GB<br>
<br>
<b>Tracklist</b>:<br>
<br>
1-Come On, Come On 03:59<br>
2-White Wedding (Pt. 1) 04:12<br>
3-Hot In The City 03:39<br>
4-Dead On Arrival 03:54<br>
5-Nobody's Business 04:06<br>
6-Love Calling 04:57<br>
7-Hole In The Wall 04:11<br>
8-Shooting Stars 04:34<br>
9-It's So Cruel 05:14<br>
10-Dancing With Myself 03:20<br>
<br>
<b><span style="font-size: 22px"><span style="color: #b30000">Filedot</span></span></b>:<br>
<br>
<div class="bbCodeBlock bbCodeVfcHH HiddenContent">
<div class="attribution type">Hidden Content:</div>
<blockquote>You must either reply or click 'Like' to see the hidden information contained here.</blockquote>
</div></div>
<div class="messageTextEndMarker">&nbsp;</div>
</blockquote>
</article>]]></description>
                <author><![CDATA[XRB80]]></author>
                </item>

                </channel></rss>